# xmcd CD database file
#
# Track frame offsets:
#	150
#	6255
#	23122
#	49105
#	78322
#	98920
#	101887
#	104232
#	106737
#	119747
#	142912
#	156570
#	158925
#	187357
#	198097
#	220835
#	246805
#	268715
#
# Disc length: 3836 seconds
#
# Revision: 0
# Processed by: cddbd v1.5.1PL0 Copyright (c) Steve Scherf et al.
# Submitted via: CDex 1.51
#
DISCID=070efa12
DTITLE=Audio Caviar(Ralph Johnson,Morris Pleasure,Steen Kyed) - Transoceanic
DYEAR=2002
DGENRE=Jazz
TTITLE0=Audio Caviar - Transoceanic - 01 - Transoceanic Prayer (Prelude)
TTITLE1=Audio Caviar - Transoceanic - 02 - Hookline (Instrumental)
TTITLE2=Audio Caviar - Transoceanic - 03 - Now That I've found You
TTITLE3=Audio Caviar - Transoceanic - 04 - Jodie
TTITLE4=Audio Caviar - Transoceanic - 05 - 5th House
TTITLE5=Audio Caviar - Transoceanic - 06 - Serengeti Sunset (Interlude)
TTITLE6=Audio Caviar - Transoceanic - 07 - Dominique (Interlude)
TTITLE7=Audio Caviar - Transoceanic - 08 - Eventually Live (A Drum Thing)
TTITLE8=Audio Caviar - Transoceanic - 09 - All Blues
TTITLE9=Audio Caviar - Transoceanic - 10 - Tel Aviv
TTITLE10=Audio Caviar - Transoceanic - 11 - Legends of Ratava (featuring Jonathan Butler)
TTITLE11=Audio Caviar - Transoceanic - 12 - Sophie's Theme (Interlude)
TTITLE12=Audio Caviar - Transoceanic - 13 - The Island (featuring George Duke)
TTITLE13=Audio Caviar - Transoceanic - 14 - Welcome (featuring TAO)
TTITLE14=Audio Caviar - Transoceanic - 15 - Dominique (featuring Phillip Bailey)
TTITLE15=Audio Caviar - Transoceanic - 16 - Love Comes In Time (featuring Howard Hewett)
TTITLE16=Audio Caviar - Transoceanic - 17 - The Closing Prayer (The Overture)
TTITLE17=Audio Caviar - Transoceanic - 18 - Bonus Track - Hookline (vocal featuring Daniel)
EXTD=YEAR: 2002
EXTT0=
EXTT1=
EXTT2=
EXTT3=
EXTT4=
EXTT5=
EXTT6=
EXTT7=
EXTT8=
EXTT9=
EXTT10=
EXTT11=
EXTT12=
EXTT13=
EXTT14=
EXTT15=
EXTT16=
EXTT17=
PLAYORDER=
